<svg xmlns="http://www.w3.org/2000/svg" xmlns:xlink="http://www.w3.org/1999/xlink" width="1920" zoomAndPan="magnify" viewBox="0 0 1440 419.999985" height="560" preserveAspectRatio="xMidYMid meet" version="1.0"><defs><g/></defs><g fill="#000000" fill-opacity="1"><g transform="translate(0.0000262286, 290.065877)"><g><path d="M 201.859375 -269.15625 L 201.859375 0 L 174.953125 0 L 47.625 -227.046875 L 49 -164.59375 L 49 0 L 25.53125 0 L 25.53125 -269.15625 L 52.453125 -269.15625 L 179.4375 -42.09375 L 178.390625 -104.546875 L 178.390625 -269.15625 Z M 201.859375 -269.15625 "/></g></g></g><g fill="#000000" fill-opacity="1"><g transform="translate(227.393952, 290.065877)"><g><path d="M 164.25 0 L 25.53125 0 L 25.53125 -269.15625 L 50.375 -269.15625 L 50.375 -22.421875 L 164.25 -22.421875 Z M 164.25 0 "/></g></g></g><g fill="#000000" fill-opacity="1"><g transform="translate(396.817968, 290.065877)"><g><path d="M 110.078125 3.796875 C 90.984375 3.796875 75.050781 1.035156 62.28125 -4.484375 C 49.507812 -10.003906 39.90625 -19.144531 33.46875 -31.90625 C 27.03125 -44.675781 23.8125 -61.875 23.8125 -83.5 L 23.8125 -269.15625 L 48.65625 -269.15625 L 48.65625 -85.234375 C 48.65625 -68.210938 50.894531 -54.867188 55.375 -45.203125 C 59.863281 -35.535156 66.648438 -28.691406 75.734375 -24.671875 C 84.828125 -20.648438 96.273438 -18.640625 110.078125 -18.640625 C 123.878906 -18.640625 135.378906 -20.648438 144.578125 -24.671875 C 153.785156 -28.691406 160.628906 -35.535156 165.109375 -45.203125 C 169.597656 -54.867188 171.84375 -68.210938 171.84375 -85.234375 L 171.84375 -269.15625 L 196.6875 -269.15625 L 196.6875 -83.5 C 196.6875 -61.875 193.460938 -44.675781 187.015625 -31.90625 C 180.578125 -19.144531 170.914062 -10.003906 158.03125 -4.484375 C 145.15625 1.035156 129.171875 3.796875 110.078125 3.796875 Z M 110.078125 3.796875 "/></g></g></g><g fill="#ff914d" fill-opacity="1"><g transform="translate(617.327498, 290.065877)"><g><path d="M 45.203125 -127.671875 C 45.203125 -89.484375 50.492188 -61.765625 61.078125 -44.515625 C 71.660156 -27.265625 88.222656 -18.640625 110.765625 -18.640625 L 113.1875 -18.640625 C 133.425781 -18.640625 148.03125 -24.5625 157 -36.40625 C 165.96875 -48.25 170.453125 -65.328125 170.453125 -87.640625 L 196 -87.640625 L 196 -84.1875 C 196 -55.894531 189.039062 -34.15625 175.125 -18.96875 C 161.207031 -3.789062 139.867188 3.796875 111.109375 3.796875 C 80.285156 3.796875 57.335938 -6.492188 42.265625 -27.078125 C 27.203125 -47.671875 19.671875 -81.203125 19.671875 -127.671875 L 19.671875 -141.46875 C 19.671875 -188.164062 27.203125 -221.75 42.265625 -242.21875 C 57.335938 -262.695312 80.285156 -272.9375 111.109375 -272.9375 C 139.867188 -272.9375 161.207031 -265.171875 175.125 -249.640625 C 189.039062 -234.117188 196 -211.175781 196 -180.8125 L 196 -171.15625 L 170.453125 -171.15625 C 170.453125 -198.988281 165.96875 -219.171875 157 -231.703125 C 148.03125 -244.242188 133.425781 -250.515625 113.1875 -250.515625 L 110.765625 -250.515625 C 88.453125 -250.515625 71.945312 -241.941406 61.25 -224.796875 C 50.550781 -207.660156 45.203125 -179.882812 45.203125 -141.46875 Z M 45.203125 -127.671875 "/></g></g></g><g fill="#ff914d" fill-opacity="1"><g transform="translate(830.574049, 290.065877)"><g><path d="M 85.921875 -33.46875 L 138.375 -182.890625 L 164.25 -182.890625 L 98.6875 -6.90625 L 72.8125 69.015625 L 44.859375 69.015625 L 73.5 -6.90625 L 7.9375 -182.890625 L 33.8125 -182.890625 Z M 85.921875 -33.46875 "/></g></g></g><g fill="#ff914d" fill-opacity="1"><g transform="translate(997.582646, 290.065877)"><g><path d="M 41.40625 -87.296875 C 41.40625 -66.367188 45.546875 -49.578125 53.828125 -36.921875 C 62.109375 -24.265625 75.335938 -17.9375 93.515625 -17.9375 C 105.015625 -17.9375 114.15625 -20.0625 120.9375 -24.3125 C 127.726562 -28.570312 132.617188 -34.210938 135.609375 -41.234375 C 138.597656 -48.253906 140.09375 -55.671875 140.09375 -63.484375 L 163.21875 -63.484375 L 163.21875 -57.96875 C 163.21875 -48.3125 160.859375 -38.765625 156.140625 -29.328125 C 151.421875 -19.898438 143.941406 -12.019531 133.703125 -5.6875 C 123.472656 0.632812 109.960938 3.796875 93.171875 3.796875 C 75.453125 3.796875 60.957031 -0.285156 49.6875 -8.453125 C 38.414062 -16.617188 30.132812 -27.601562 24.84375 -41.40625 C 19.550781 -55.207031 16.90625 -70.503906 16.90625 -87.296875 L 16.90625 -95.578125 C 16.90625 -112.597656 19.550781 -127.953125 24.84375 -141.640625 C 30.132812 -155.328125 38.414062 -166.253906 49.6875 -174.421875 C 60.957031 -182.585938 75.453125 -186.671875 93.171875 -186.671875 C 109.960938 -186.671875 123.472656 -183.394531 133.703125 -176.84375 C 143.941406 -170.289062 151.421875 -162.125 156.140625 -152.34375 C 160.859375 -142.570312 163.21875 -132.738281 163.21875 -122.84375 L 163.21875 -115.9375 L 140.09375 -115.9375 C 140.09375 -129.96875 136.46875 -141.640625 129.21875 -150.953125 C 121.976562 -160.273438 110.078125 -164.9375 93.515625 -164.9375 C 75.335938 -164.9375 62.109375 -158.609375 53.828125 -145.953125 C 45.546875 -133.304688 41.40625 -116.515625 41.40625 -95.578125 Z M 41.40625 -87.296875 "/></g></g></g><g fill="#ff914d" fill-opacity="1"><g transform="translate(1177.70352, 290.065877)"><g><path d="M 25.1875 0 L 25.1875 -276.046875 L 49.34375 -276.046875 L 49.34375 0 Z M 25.1875 0 "/></g></g></g><g fill="#ff914d" fill-opacity="1"><g transform="translate(1252.236313, 290.065877)"><g><path d="M 170.8125 -81.4375 L 41.40625 -81.4375 C 41.863281 -61.425781 46.519531 -45.609375 55.375 -33.984375 C 64.238281 -22.367188 77.753906 -16.5625 95.921875 -16.5625 C 108.117188 -16.5625 118.007812 -18.6875 125.59375 -22.9375 C 133.1875 -27.195312 138.765625 -32.601562 142.328125 -39.15625 C 145.898438 -45.71875 147.6875 -52.21875 147.6875 -58.65625 L 170.8125 -58.65625 L 170.8125 -57.28125 C 170.8125 -47.84375 168.164062 -38.410156 162.875 -28.984375 C 157.582031 -19.554688 149.414062 -11.734375 138.375 -5.515625 C 127.332031 0.691406 113.179688 3.796875 95.921875 3.796875 C 77.523438 3.796875 62.515625 -0.285156 50.890625 -8.453125 C 39.273438 -16.617188 30.707031 -27.660156 25.1875 -41.578125 C 19.664062 -55.492188 16.90625 -70.847656 16.90625 -87.640625 L 16.90625 -95.234375 C 16.90625 -112.253906 19.609375 -127.664062 25.015625 -141.46875 C 30.421875 -155.269531 38.875 -166.253906 50.375 -174.421875 C 61.875 -182.585938 76.484375 -186.671875 94.203125 -186.671875 C 112.140625 -186.671875 126.742188 -182.585938 138.015625 -174.421875 C 149.296875 -166.253906 157.582031 -155.269531 162.875 -141.46875 C 168.164062 -127.664062 170.8125 -112.253906 170.8125 -95.234375 Z M 93.859375 -166.3125 C 76.609375 -166.3125 63.664062 -160.445312 55.03125 -148.71875 C 46.40625 -136.988281 41.863281 -121.234375 41.40625 -101.453125 L 146.3125 -101.453125 C 145.613281 -121.234375 141.066406 -136.988281 132.671875 -148.71875 C 124.273438 -160.445312 111.335938 -166.3125 93.859375 -166.3125 Z M 93.859375 -166.3125 "/></g></g></g></svg>